<svg width="394" height="494" viewBox="0 0 394 494" fill="none" xmlns="http://www.w3.org/2000/svg" style="">
<path d="M98.2149 117.51C98.2149 117.51 3.55488 87.5902 18.5149 63.6002C71.7849 -21.8198 336.545 -27.9398 381.005 117.05C389.135 143.57 305.025 173.75 294.105 172.82C283.185 171.89 279.005 220.45 280.855 223.71C286.445 221.36 314.175 225.38 324.285 243.29C332.595 258 325.595 270.48 321.745 273.21C321.745 273.21 330.345 280.87 331.385 288.89C332.435 296.91 331.735 301.09 338.125 304.34C344.515 307.59 352.645 318.4 353.345 326.07C354.045 333.74 382.735 322.7 388.785 338.04C394.825 353.38 387.155 394.62 328.595 406.48C270.035 418.33 258.885 399.04 237.735 395.79C216.595 392.54 168.725 385.1 135.725 420.88C102.725 456.66 88.68 471.04 78 465C78 465 71 460 65.5 461.5C60 463 8.86488 502.21 3.28488 487.33C-1.74512 473.91 61.2649 379.73 79.2649 330.02C86.7649 309.29 84.7549 312.41 108.315 305.16C121.165 301.21 107.385 294.24 101.345 289.59C95.3049 284.94 79.0349 274.49 87.8649 231.27C80.8949 223.37 61.6049 211.05 60.4449 207.34C59.2849 203.62 105.055 154.13 98.2149 117.53" stroke="#CCB26A" stroke-width="5" stroke-linecap="round" class="HZPNgGxK_0"></path>
<style data-made-with="vivus-instant">.HZPNgGxK_0{stroke-dasharray:1790 1792;stroke-dashoffset:1791;animation:HZPNgGxK_draw 3000ms ease 0ms forwards;}@keyframes HZPNgGxK_draw{100%{stroke-dashoffset:0;}}@keyframes HZPNgGxK_fade{0%{stroke-opacity:1;}94.44444444444444%{stroke-opacity:1;}100%{stroke-opacity:0;}}</style></svg>
