<svg width="388" height="488" viewBox="0 0 388 488" fill="none" xmlns="http://www.w3.org/2000/svg">
<path fill-rule="evenodd" clip-rule="evenodd" d="M95.2149 114.51C95.2149 114.51 0.55488 84.5902 15.5149 60.6002C68.7849 -24.8198 333.545 -30.9398 378.005 114.05C386.135 140.57 302.025 170.75 291.105 169.82C280.185 168.89 276.005 217.45 277.855 220.71C283.445 218.36 311.175 222.38 321.285 240.29C329.595 255 322.595 267.48 318.745 270.21C318.745 270.21 327.345 277.87 328.385 285.89C329.435 293.91 328.735 298.09 335.125 301.34C341.515 304.59 349.645 315.4 350.345 323.07C351.045 330.74 379.735 319.7 385.785 335.04C391.825 350.38 384.155 391.62 325.595 403.48C267.035 415.33 255.885 396.04 234.735 392.79C213.595 389.54 165.725 382.1 132.725 417.88C99.7249 453.66 82.9949 469.93 72.3149 463.89C61.6249 457.85 66.2749 457.38 66.2749 457.38C66.2749 457.38 5.86488 499.21 0.28488 484.33C-4.74512 470.91 58.2649 376.73 76.2649 327.02C83.7649 306.29 81.7549 309.41 105.315 302.16C118.165 298.21 104.385 291.24 98.3449 286.59C92.3049 281.94 76.0349 271.49 84.8649 228.27C77.8949 220.37 58.6049 208.05 57.4449 204.34C56.2849 200.62 102.055 151.13 95.2149 114.53" fill="#CCB26A"/>
</svg>
